<mxfile host="app.diagrams.net" agent="Mozilla/5.0 (Macintosh; Intel Mac OS X 10_15_7) AppleWebKit/537.36 (KHTML, like Gecko) Chrome/137.0.0.0 Safari/537.36" version="27.0.9" pages="7">
  <diagram name="Page-1" id="cdnv1xzmEgkro853JLI1">
    <mxGraphModel grid="1" page="1" gridSize="10" guides="1" tooltips="1" connect="1" arrows="1" fold="1" pageScale="1" pageWidth="850" pageHeight="1100" math="0" shadow="0">
      <root>
        <mxCell id="0" />
        <mxCell id="1" parent="0" />
        <mxCell id="DExjwAkdypSiZ_c1kjAN-1" value="1. text&amp;nbsp;&lt;div&gt;2. binary content : audio, video , high end images etc.&lt;/div&gt;" style="rounded=1;whiteSpace=wrap;html=1;fontSize=16;" vertex="1" parent="1">
          <mxGeometry x="71" y="20" width="560" height="110" as="geometry" />
        </mxCell>
        <mxCell id="DExjwAkdypSiZ_c1kjAN-2" value="&lt;li data-start=&quot;327&quot; data-end=&quot;344&quot; style=&quot;caret-color: rgb(0, 0, 0);&quot;&gt;&lt;p data-start=&quot;330&quot; data-end=&quot;344&quot;&gt;&lt;strong data-start=&quot;330&quot; data-end=&quot;344&quot;&gt;Take Order&lt;/strong&gt;&lt;/p&gt;&lt;/li&gt;&lt;li data-start=&quot;345&quot; data-end=&quot;365&quot; style=&quot;caret-color: rgb(0, 0, 0);&quot;&gt;&lt;p data-start=&quot;348&quot; data-end=&quot;365&quot;&gt;&lt;strong data-start=&quot;348&quot; data-end=&quot;365&quot;&gt;Prepare Dough&lt;/strong&gt;&lt;/p&gt;&lt;/li&gt;&lt;li data-start=&quot;366&quot; data-end=&quot;385&quot; style=&quot;caret-color: rgb(0, 0, 0);&quot;&gt;&lt;p data-start=&quot;369&quot; data-end=&quot;385&quot;&gt;&lt;strong data-start=&quot;369&quot; data-end=&quot;385&quot;&gt;Add Toppings&lt;/strong&gt;&lt;/p&gt;&lt;/li&gt;&lt;li data-start=&quot;386&quot; data-end=&quot;403&quot; style=&quot;caret-color: rgb(0, 0, 0);&quot;&gt;&lt;p data-start=&quot;389&quot; data-end=&quot;403&quot;&gt;&lt;strong data-start=&quot;389&quot; data-end=&quot;403&quot;&gt;Bake Pizza&lt;/strong&gt;&lt;/p&gt;&lt;/li&gt;&lt;li data-start=&quot;404&quot; data-end=&quot;418&quot; style=&quot;caret-color: rgb(0, 0, 0);&quot;&gt;&lt;p data-start=&quot;407&quot; data-end=&quot;418&quot;&gt;&lt;strong data-start=&quot;407&quot; data-end=&quot;418&quot;&gt;Pack it&lt;/strong&gt;&lt;/p&gt;&lt;/li&gt;&lt;li data-start=&quot;419&quot; data-end=&quot;436&quot; style=&quot;caret-color: rgb(0, 0, 0);&quot;&gt;&lt;p data-start=&quot;422&quot; data-end=&quot;436&quot;&gt;&lt;strong data-start=&quot;422&quot; data-end=&quot;436&quot;&gt;Deliver it&lt;/strong&gt;&lt;/p&gt;&lt;/li&gt;" style="rounded=1;whiteSpace=wrap;html=1;fontSize=15;" vertex="1" parent="1">
          <mxGeometry x="180" y="160" width="560" height="400" as="geometry" />
        </mxCell>
        <mxCell id="DExjwAkdypSiZ_c1kjAN-3" value="&lt;table style=&quot;caret-color: rgb(0, 0, 0); color: rgb(0, 0, 0); font-style: normal; font-variant-caps: normal; font-weight: 400; letter-spacing: normal; orphans: auto; text-align: start; text-transform: none; white-space: normal; widows: auto; word-spacing: 0px; -webkit-text-stroke-width: 0px; text-decoration: none;&quot;&gt;&lt;thead&gt;&lt;tr&gt;&lt;th&gt;Pizza Example&lt;/th&gt;&lt;th&gt;GCP Concept&lt;/th&gt;&lt;/tr&gt;&lt;/thead&gt;&lt;tbody&gt;&lt;tr&gt;&lt;td&gt;Take Order&lt;/td&gt;&lt;td&gt;Ingest data from a source&lt;/td&gt;&lt;/tr&gt;&lt;tr&gt;&lt;td&gt;Prepare &amp;amp; Bake Pizza&lt;/td&gt;&lt;td&gt;Process and transform the data&lt;/td&gt;&lt;/tr&gt;&lt;tr&gt;&lt;td&gt;Pack and Deliver&lt;/td&gt;&lt;td&gt;Store results or send it to users&lt;/td&gt;&lt;/tr&gt;&lt;tr&gt;&lt;td&gt;Step-by-step workflow&lt;/td&gt;&lt;td&gt;Pipeline&lt;/td&gt;&lt;/tr&gt;&lt;tr&gt;&lt;td&gt;Follow order strictly&lt;/td&gt;&lt;td&gt;Orchestration&lt;/td&gt;&lt;/tr&gt;&lt;/tbody&gt;&lt;/table&gt;" style="rounded=1;whiteSpace=wrap;html=1;fontSize=21;" vertex="1" parent="1">
          <mxGeometry x="90" y="660" width="700" height="270" as="geometry" />
        </mxCell>
        <mxCell id="DExjwAkdypSiZ_c1kjAN-4" value="CDN : content delivery network&amp;nbsp;" style="rounded=1;whiteSpace=wrap;html=1;fontSize=16;" vertex="1" parent="1">
          <mxGeometry x="120" y="950" width="440" height="60" as="geometry" />
        </mxCell>
      </root>
    </mxGraphModel>
  </diagram>
  <diagram id="bmRlA56O7Wga4fEIZ2DZ" name="Page-2">
    <mxGraphModel grid="1" page="1" gridSize="10" guides="1" tooltips="1" connect="1" arrows="1" fold="1" pageScale="1" pageWidth="850" pageHeight="1100" math="0" shadow="0">
      <root>
        <mxCell id="0" />
        <mxCell id="1" parent="0" />
        <mxCell id="e7la45NZ7qPYUXp4N6tA-1" value="user2" style="rounded=1;whiteSpace=wrap;html=1;fillColor=#ffe6cc;strokeColor=#d79b00;" vertex="1" parent="1">
          <mxGeometry x="190" y="180" width="120" height="60" as="geometry" />
        </mxCell>
        <mxCell id="e7la45NZ7qPYUXp4N6tA-2" value="user3" style="rounded=1;whiteSpace=wrap;html=1;fillColor=#ffe6cc;strokeColor=#d79b00;" vertex="1" parent="1">
          <mxGeometry x="220" y="340" width="120" height="60" as="geometry" />
        </mxCell>
        <mxCell id="e7la45NZ7qPYUXp4N6tA-3" value="user1" style="rounded=1;whiteSpace=wrap;html=1;fillColor=#ffe6cc;strokeColor=#d79b00;" vertex="1" parent="1">
          <mxGeometry x="250" y="20" width="120" height="60" as="geometry" />
        </mxCell>
        <mxCell id="e7la45NZ7qPYUXp4N6tA-6" value="" style="edgeStyle=orthogonalEdgeStyle;rounded=0;orthogonalLoop=1;jettySize=auto;html=1;" edge="1" parent="1" source="e7la45NZ7qPYUXp4N6tA-4" target="e7la45NZ7qPYUXp4N6tA-5">
          <mxGeometry relative="1" as="geometry" />
        </mxCell>
        <mxCell id="e7la45NZ7qPYUXp4N6tA-4" value="Web Application" style="rounded=1;whiteSpace=wrap;html=1;" vertex="1" parent="1">
          <mxGeometry x="480" y="20" width="120" height="420" as="geometry" />
        </mxCell>
        <mxCell id="e7la45NZ7qPYUXp4N6tA-8" value="" style="edgeStyle=orthogonalEdgeStyle;rounded=0;orthogonalLoop=1;jettySize=auto;html=1;" edge="1" parent="1" source="e7la45NZ7qPYUXp4N6tA-5" target="e7la45NZ7qPYUXp4N6tA-7">
          <mxGeometry relative="1" as="geometry" />
        </mxCell>
        <mxCell id="e7la45NZ7qPYUXp4N6tA-5" value="CDN" style="whiteSpace=wrap;html=1;rounded=1;" vertex="1" parent="1">
          <mxGeometry x="680" y="200" width="120" height="60" as="geometry" />
        </mxCell>
        <mxCell id="e7la45NZ7qPYUXp4N6tA-10" value="" style="edgeStyle=orthogonalEdgeStyle;rounded=0;orthogonalLoop=1;jettySize=auto;html=1;" edge="1" parent="1" source="e7la45NZ7qPYUXp4N6tA-7" target="e7la45NZ7qPYUXp4N6tA-9">
          <mxGeometry relative="1" as="geometry" />
        </mxCell>
        <mxCell id="e7la45NZ7qPYUXp4N6tA-7" value="Storage" style="whiteSpace=wrap;html=1;rounded=1;" vertex="1" parent="1">
          <mxGeometry x="890" y="30" width="120" height="60" as="geometry" />
        </mxCell>
        <mxCell id="e7la45NZ7qPYUXp4N6tA-9" value="multiple zones / multiple regions&amp;nbsp;" style="whiteSpace=wrap;html=1;rounded=1;" vertex="1" parent="1">
          <mxGeometry x="1090" y="30" width="120" height="60" as="geometry" />
        </mxCell>
      </root>
    </mxGraphModel>
  </diagram>
  <diagram id="FyJsmtLKThAoVoEhubOj" name="Page-3">
    <mxGraphModel dx="2036" dy="648" grid="1" gridSize="10" guides="1" tooltips="1" connect="1" arrows="1" fold="1" page="1" pageScale="1" pageWidth="850" pageHeight="1100" math="0" shadow="0">
      <root>
        <mxCell id="0" />
        <mxCell id="1" parent="0" />
        <mxCell id="xKrLLWmfbD4q2ah6btJ0-8" value="" style="rounded=1;whiteSpace=wrap;html=1;" vertex="1" parent="1">
          <mxGeometry x="130" y="160" width="530" height="180" as="geometry" />
        </mxCell>
        <mxCell id="xKrLLWmfbD4q2ah6btJ0-17" value="" style="edgeStyle=orthogonalEdgeStyle;rounded=0;orthogonalLoop=1;jettySize=auto;html=1;" edge="1" parent="1" source="xKrLLWmfbD4q2ah6btJ0-2" target="xKrLLWmfbD4q2ah6btJ0-16">
          <mxGeometry relative="1" as="geometry" />
        </mxCell>
        <mxCell id="xKrLLWmfbD4q2ah6btJ0-2" value="Primary Instance (SQL Server DB server)&amp;nbsp;&lt;div&gt;cloud SQL instance&lt;/div&gt;" style="rounded=0;whiteSpace=wrap;html=1;fontSize=16;" vertex="1" parent="1">
          <mxGeometry x="230" y="170" width="325" height="60" as="geometry" />
        </mxCell>
        <mxCell id="xKrLLWmfbD4q2ah6btJ0-5" style="edgeStyle=orthogonalEdgeStyle;rounded=0;orthogonalLoop=1;jettySize=auto;html=1;entryX=0.5;entryY=0;entryDx=0;entryDy=0;" edge="1" parent="1" source="xKrLLWmfbD4q2ah6btJ0-3" target="xKrLLWmfbD4q2ah6btJ0-2">
          <mxGeometry relative="1" as="geometry" />
        </mxCell>
        <mxCell id="xKrLLWmfbD4q2ah6btJ0-3" value="API server" style="whiteSpace=wrap;html=1;fontSize=16;rounded=0;" vertex="1" parent="1">
          <mxGeometry x="332.5" y="30" width="120" height="60" as="geometry" />
        </mxCell>
        <mxCell id="xKrLLWmfbD4q2ah6btJ0-7" style="edgeStyle=orthogonalEdgeStyle;rounded=0;orthogonalLoop=1;jettySize=auto;html=1;" edge="1" parent="1" source="xKrLLWmfbD4q2ah6btJ0-6">
          <mxGeometry relative="1" as="geometry">
            <mxPoint x="390" y="120" as="targetPoint" />
          </mxGeometry>
        </mxCell>
        <mxCell id="xKrLLWmfbD4q2ah6btJ0-6" value="user sign ups , cart update, payemnt , chekout&amp;nbsp;" style="rounded=1;whiteSpace=wrap;html=1;" vertex="1" parent="1">
          <mxGeometry x="130" y="80" width="120" height="60" as="geometry" />
        </mxCell>
        <mxCell id="xKrLLWmfbD4q2ah6btJ0-9" value="us-central1" style="text;html=1;align=center;verticalAlign=middle;whiteSpace=wrap;rounded=0;fillColor=#dae8fc;strokeColor=#6c8ebf;" vertex="1" parent="1">
          <mxGeometry x="140" y="180" width="60" height="30" as="geometry" />
        </mxCell>
        <mxCell id="xKrLLWmfbD4q2ah6btJ0-12" value="" style="edgeStyle=orthogonalEdgeStyle;rounded=0;orthogonalLoop=1;jettySize=auto;html=1;" edge="1" parent="1" source="xKrLLWmfbD4q2ah6btJ0-10" target="xKrLLWmfbD4q2ah6btJ0-11">
          <mxGeometry relative="1" as="geometry" />
        </mxCell>
        <mxCell id="xKrLLWmfbD4q2ah6btJ0-14" value="" style="edgeStyle=orthogonalEdgeStyle;rounded=0;orthogonalLoop=1;jettySize=auto;html=1;" edge="1" parent="1" source="xKrLLWmfbD4q2ah6btJ0-10" target="xKrLLWmfbD4q2ah6btJ0-13">
          <mxGeometry relative="1" as="geometry" />
        </mxCell>
        <mxCell id="xKrLLWmfbD4q2ah6btJ0-10" value="Read Replica" style="rounded=1;whiteSpace=wrap;html=1;" vertex="1" parent="1">
          <mxGeometry x="170" y="260" width="120" height="60" as="geometry" />
        </mxCell>
        <mxCell id="xKrLLWmfbD4q2ah6btJ0-11" value="&lt;p style=&quot;caret-color: rgb(0, 0, 0); text-align: start;&quot; data-end=&quot;1364&quot; data-start=&quot;1348&quot;&gt;App Tier routes:&lt;/p&gt;&lt;ul style=&quot;caret-color: rgb(0, 0, 0); text-align: start;&quot; data-end=&quot;1443&quot; data-start=&quot;1367&quot;&gt;&lt;li data-end=&quot;1389&quot; data-start=&quot;1367&quot;&gt;&lt;p data-end=&quot;1389&quot; data-start=&quot;1369&quot;&gt;&lt;strong data-end=&quot;1389&quot; data-start=&quot;1369&quot;&gt;Product browsing&lt;/strong&gt;&lt;/p&gt;&lt;/li&gt;&lt;li data-end=&quot;1412&quot; data-start=&quot;1392&quot;&gt;&lt;p data-end=&quot;1412&quot; data-start=&quot;1394&quot;&gt;&lt;strong data-end=&quot;1412&quot; data-start=&quot;1394&quot;&gt;Search results&lt;/strong&gt;&lt;/p&gt;&lt;/li&gt;&lt;li data-end=&quot;1443&quot; data-start=&quot;1415&quot;&gt;&lt;p data-end=&quot;1443&quot; data-start=&quot;1417&quot;&gt;&lt;strong data-end=&quot;1443&quot; data-start=&quot;1417&quot;&gt;Category listing pages&lt;/strong&gt;&lt;/p&gt;&lt;/li&gt;&lt;/ul&gt;" style="whiteSpace=wrap;html=1;rounded=1;" vertex="1" parent="1">
          <mxGeometry x="-120" y="150" width="170" height="200" as="geometry" />
        </mxCell>
        <mxCell id="xKrLLWmfbD4q2ah6btJ0-13" value="&lt;span style=&quot;caret-color: rgb(0, 0, 0); font-family: -webkit-standard; font-size: medium; text-align: start;&quot;&gt;his keeps&lt;span class=&quot;Apple-converted-space&quot;&gt;&amp;nbsp;&lt;/span&gt;&lt;/span&gt;&lt;strong style=&quot;caret-color: rgb(0, 0, 0); text-align: start;&quot; data-end=&quot;1492&quot; data-start=&quot;1457&quot;&gt;read traffic off the primary DB&lt;/strong&gt;&lt;span style=&quot;caret-color: rgb(0, 0, 0); font-family: -webkit-standard; font-size: medium; text-align: start;&quot;&gt;, freeing up capacity for purchases and account updates.&lt;/span&gt;" style="whiteSpace=wrap;html=1;rounded=1;" vertex="1" parent="1">
          <mxGeometry x="85" y="410" width="290" height="60" as="geometry" />
        </mxCell>
        <mxCell id="xKrLLWmfbD4q2ah6btJ0-15" style="edgeStyle=orthogonalEdgeStyle;rounded=0;orthogonalLoop=1;jettySize=auto;html=1;entryX=0.465;entryY=1.017;entryDx=0;entryDy=0;entryPerimeter=0;" edge="1" parent="1" source="xKrLLWmfbD4q2ah6btJ0-10" target="xKrLLWmfbD4q2ah6btJ0-2">
          <mxGeometry relative="1" as="geometry" />
        </mxCell>
        <mxCell id="xKrLLWmfbD4q2ah6btJ0-16" value="ReadReplica2" style="whiteSpace=wrap;html=1;fontSize=16;rounded=0;" vertex="1" parent="1">
          <mxGeometry x="440" y="270" width="120" height="60" as="geometry" />
        </mxCell>
        <mxCell id="xKrLLWmfbD4q2ah6btJ0-18" value="update the file :&amp;nbsp; download the file&amp;nbsp;&lt;div&gt;append the content manually&lt;/div&gt;&lt;div&gt;upload it again.&lt;/div&gt;" style="rounded=1;whiteSpace=wrap;html=1;fontSize=17;fillColor=#dae8fc;strokeColor=#6c8ebf;fontStyle=1" vertex="1" parent="1">
          <mxGeometry x="200" y="660" width="420" height="60" as="geometry" />
        </mxCell>
        <mxCell id="xKrLLWmfbD4q2ah6btJ0-19" value="lifecycle rule is applied to the bucket but it is effectively acting on the objects (files) inside the bucket" style="rounded=1;whiteSpace=wrap;html=1;fontStyle=1;fillColor=#f8cecc;strokeColor=#b85450;" vertex="1" parent="1">
          <mxGeometry x="40" y="820" width="690" height="60" as="geometry" />
        </mxCell>
        <mxCell id="xKrLLWmfbD4q2ah6btJ0-20" value="&lt;br&gt;for MEMBER in $(gcloud projects get-iam-policy fy23-asc-addg-dataverse]\&lt;br&gt;&lt;span class=&quot;Apple-converted-space&quot;&gt;&amp;nbsp; &lt;/span&gt;--flatten=&quot;bindings[].members&quot; \&lt;br&gt;&lt;span class=&quot;Apple-converted-space&quot;&gt;&amp;nbsp; &lt;/span&gt;--format=&quot;value(bindings.members)&quot; \&lt;br&gt;&lt;span class=&quot;Apple-converted-space&quot;&gt;&amp;nbsp; &lt;/span&gt;--filter=&quot;bindings.members:user:*&quot;); do&lt;br&gt;&lt;span class=&quot;Apple-converted-space&quot;&gt;&amp;nbsp; &amp;nbsp; &lt;/span&gt;echo &quot;Assigning role to $MEMBER&quot;&lt;br&gt;&lt;span class=&quot;Apple-converted-space&quot;&gt;&amp;nbsp; &amp;nbsp; &lt;/span&gt;gcloud projects add-iam-policy-binding fy23-asc-addg-dataverse \&lt;br&gt;&lt;span class=&quot;Apple-converted-space&quot;&gt;&amp;nbsp; &amp;nbsp; &amp;nbsp; &lt;/span&gt;--member=&quot;$MEMBER&quot; \&lt;br&gt;&lt;span class=&quot;Apple-converted-space&quot;&gt;&amp;nbsp; &amp;nbsp; &amp;nbsp; &lt;/span&gt;--role=&quot;roles/storage.objectViewer&quot;&lt;br&gt;done&lt;br&gt;&lt;p style=&quot;margin: 0px; font-variant-numeric: normal; font-variant-east-asian: normal; font-variant-alternates: normal; font-size-adjust: none; font-kerning: auto; font-optical-sizing: auto; font-feature-settings: normal; font-variation-settings: normal; font-variant-position: normal; font-variant-emoji: normal; font-stretch: normal; line-height: normal; text-align: start;&quot; class=&quot;p1&quot;&gt;&lt;font style=&quot;font-size: 20px;&quot;&gt;PROJECT_ID=&quot;fy23-asc-addg-dataverse&quot;&lt;/font&gt;&lt;/p&gt;&lt;p style=&quot;margin: 0px; font-variant-numeric: normal; font-variant-east-asian: normal; font-variant-alternates: normal; font-size-adjust: none; font-kerning: auto; font-optical-sizing: auto; font-feature-settings: normal; font-variation-settings: normal; font-variant-position: normal; font-variant-emoji: normal; font-stretch: normal; line-height: normal; text-align: start;&quot; class=&quot;p1&quot;&gt;&lt;font style=&quot;font-size: 20px;&quot;&gt;ROLE=&quot;roles/serviceusage.serviceUsageAdmin&quot;&lt;/font&gt;&lt;/p&gt;&lt;p style=&quot;margin: 0px; font-variant-numeric: normal; font-variant-east-asian: normal; font-variant-alternates: normal; font-size-adjust: none; font-kerning: auto; font-optical-sizing: auto; font-feature-settings: normal; font-variation-settings: normal; font-variant-position: normal; font-variant-emoji: normal; font-stretch: normal; line-height: normal; min-height: 14px; text-align: start;&quot; class=&quot;p2&quot;&gt;&lt;font style=&quot;font-size: 20px;&quot;&gt;&lt;br&gt;&lt;/font&gt;&lt;/p&gt;&lt;p style=&quot;margin: 0px; font-variant-numeric: normal; font-variant-east-asian: normal; font-variant-alternates: normal; font-size-adjust: none; font-kerning: auto; font-optical-sizing: auto; font-feature-settings: normal; font-variation-settings: normal; font-variant-position: normal; font-variant-emoji: normal; font-stretch: normal; line-height: normal; text-align: start;&quot; class=&quot;p1&quot;&gt;&lt;font style=&quot;font-size: 20px;&quot;&gt;# Get unique user emails from the IAM policy&lt;/font&gt;&lt;/p&gt;&lt;p style=&quot;margin: 0px; font-variant-numeric: normal; font-variant-east-asian: normal; font-variant-alternates: normal; font-size-adjust: none; font-kerning: auto; font-optical-sizing: auto; font-feature-settings: normal; font-variation-settings: normal; font-variant-position: normal; font-variant-emoji: normal; font-stretch: normal; line-height: normal; text-align: start;&quot; class=&quot;p1&quot;&gt;&lt;font style=&quot;font-size: 20px;&quot;&gt;echo &quot; Fetching all IAM users for project: $PROJECT_ID&quot;&lt;/font&gt;&lt;/p&gt;&lt;p style=&quot;margin: 0px; font-variant-numeric: normal; font-variant-east-asian: normal; font-variant-alternates: normal; font-size-adjust: none; font-kerning: auto; font-optical-sizing: auto; font-feature-settings: normal; font-variation-settings: normal; font-variant-position: normal; font-variant-emoji: normal; font-stretch: normal; line-height: normal; text-align: start;&quot; class=&quot;p1&quot;&gt;&lt;font style=&quot;font-size: 20px;&quot;&gt;MEMBERS=$(gcloud projects get-iam-policy &quot;$PROJECT_ID&quot; \&lt;/font&gt;&lt;/p&gt;&lt;p style=&quot;margin: 0px; font-variant-numeric: normal; font-variant-east-asian: normal; font-variant-alternates: normal; font-size-adjust: none; font-kerning: auto; font-optical-sizing: auto; font-feature-settings: normal; font-variation-settings: normal; font-variant-position: normal; font-variant-emoji: normal; font-stretch: normal; line-height: normal; text-align: start;&quot; class=&quot;p1&quot;&gt;&lt;font style=&quot;font-size: 20px;&quot;&gt;--flatten=&quot;bindings[].members&quot; \&lt;/font&gt;&lt;/p&gt;&lt;p style=&quot;margin: 0px; font-variant-numeric: normal; font-variant-east-asian: normal; font-variant-alternates: normal; font-size-adjust: none; font-kerning: auto; font-optical-sizing: auto; font-feature-settings: normal; font-variation-settings: normal; font-variant-position: normal; font-variant-emoji: normal; font-stretch: normal; line-height: normal; text-align: start;&quot; class=&quot;p1&quot;&gt;&lt;font style=&quot;font-size: 20px;&quot;&gt;--format=&quot;value(bindings.members)&quot; \&lt;/font&gt;&lt;/p&gt;&lt;p style=&quot;margin: 0px; font-variant-numeric: normal; font-variant-east-asian: normal; font-variant-alternates: normal; font-size-adjust: none; font-kerning: auto; font-optical-sizing: auto; font-feature-settings: normal; font-variation-settings: normal; font-variant-position: normal; font-variant-emoji: normal; font-stretch: normal; line-height: normal; text-align: start;&quot; class=&quot;p1&quot;&gt;&lt;font style=&quot;font-size: 20px;&quot;&gt;--filter=&quot;bindings.members:user:*&quot; | sort -u)&lt;/font&gt;&lt;/p&gt;&lt;p style=&quot;margin: 0px; font-variant-numeric: normal; font-variant-east-asian: normal; font-variant-alternates: normal; font-size-adjust: none; font-kerning: auto; font-optical-sizing: auto; font-feature-settings: normal; font-variation-settings: normal; font-variant-position: normal; font-variant-emoji: normal; font-stretch: normal; line-height: normal; min-height: 14px; text-align: start;&quot; class=&quot;p2&quot;&gt;&lt;font style=&quot;font-size: 20px;&quot;&gt;&lt;br&gt;&lt;/font&gt;&lt;/p&gt;&lt;p style=&quot;margin: 0px; font-variant-numeric: normal; font-variant-east-asian: normal; font-variant-alternates: normal; font-size-adjust: none; font-kerning: auto; font-optical-sizing: auto; font-feature-settings: normal; font-variation-settings: normal; font-variant-position: normal; font-variant-emoji: normal; font-stretch: normal; line-height: normal; text-align: start;&quot; class=&quot;p1&quot;&gt;&lt;font style=&quot;font-size: 20px;&quot;&gt;# Assign the role to each user&lt;/font&gt;&lt;/p&gt;&lt;p style=&quot;margin: 0px; font-variant-numeric: normal; font-variant-east-asian: normal; font-variant-alternates: normal; font-size-adjust: none; font-kerning: auto; font-optical-sizing: auto; font-feature-settings: normal; font-variation-settings: normal; font-variant-position: normal; font-variant-emoji: normal; font-stretch: normal; line-height: normal; text-align: start;&quot; class=&quot;p1&quot;&gt;&lt;font style=&quot;font-size: 20px;&quot;&gt;for MEMBER in $MEMBERS; do&lt;/font&gt;&lt;/p&gt;&lt;p style=&quot;margin: 0px; font-variant-numeric: normal; font-variant-east-asian: normal; font-variant-alternates: normal; font-size-adjust: none; font-kerning: auto; font-optical-sizing: auto; font-feature-settings: normal; font-variation-settings: normal; font-variant-position: normal; font-variant-emoji: normal; font-stretch: normal; line-height: normal; text-align: start;&quot; class=&quot;p1&quot;&gt;&lt;font style=&quot;font-size: 20px;&quot;&gt;echo &quot; Assigning $ROLE to $MEMBER&quot;&lt;/font&gt;&lt;/p&gt;&lt;p style=&quot;margin: 0px; font-variant-numeric: normal; font-variant-east-asian: normal; font-variant-alternates: normal; font-size-adjust: none; font-kerning: auto; font-optical-sizing: auto; font-feature-settings: normal; font-variation-settings: normal; font-variant-position: normal; font-variant-emoji: normal; font-stretch: normal; line-height: normal; text-align: start;&quot; class=&quot;p1&quot;&gt;&lt;font style=&quot;font-size: 20px;&quot;&gt;gcloud projects add-iam-policy-binding &quot;$PROJECT_ID&quot; \&lt;/font&gt;&lt;/p&gt;&lt;p style=&quot;margin: 0px; font-variant-numeric: normal; font-variant-east-asian: normal; font-variant-alternates: normal; font-size-adjust: none; font-kerning: auto; font-optical-sizing: auto; font-feature-settings: normal; font-variation-settings: normal; font-variant-position: normal; font-variant-emoji: normal; font-stretch: normal; line-height: normal; text-align: start;&quot; class=&quot;p1&quot;&gt;&lt;font style=&quot;font-size: 20px;&quot;&gt;--member=&quot;$MEMBER&quot; \&lt;/font&gt;&lt;/p&gt;&lt;p style=&quot;margin: 0px; font-variant-numeric: normal; font-variant-east-asian: normal; font-variant-alternates: normal; font-size-adjust: none; font-kerning: auto; font-optical-sizing: auto; font-feature-settings: normal; font-variation-settings: normal; font-variant-position: normal; font-variant-emoji: normal; font-stretch: normal; line-height: normal; text-align: start;&quot; class=&quot;p1&quot;&gt;&lt;font style=&quot;font-size: 20px;&quot;&gt;--role=&quot;$ROLE&quot; \&lt;/font&gt;&lt;/p&gt;&lt;p style=&quot;margin: 0px; font-variant-numeric: normal; font-variant-east-asian: normal; font-variant-alternates: normal; font-size-adjust: none; font-kerning: auto; font-optical-sizing: auto; font-feature-settings: normal; font-variation-settings: normal; font-variant-position: normal; font-variant-emoji: normal; font-stretch: normal; line-height: normal; text-align: start;&quot; class=&quot;p1&quot;&gt;&lt;font style=&quot;font-size: 20px;&quot;&gt;--quiet&lt;/font&gt;&lt;/p&gt;&lt;p style=&quot;margin: 0px; font-variant-numeric: normal; font-variant-east-asian: normal; font-variant-alternates: normal; font-size-adjust: none; font-kerning: auto; font-optical-sizing: auto; font-feature-settings: normal; font-variation-settings: normal; font-variant-position: normal; font-variant-emoji: normal; font-stretch: normal; line-height: normal; text-align: start;&quot; class=&quot;p1&quot;&gt;&lt;font style=&quot;font-size: 20px;&quot;&gt;done&lt;/font&gt;&lt;/p&gt;&lt;p style=&quot;margin: 0px; font-variant-numeric: normal; font-variant-east-asian: normal; font-variant-alternates: normal; font-size-adjust: none; font-kerning: auto; font-optical-sizing: auto; font-feature-settings: normal; font-variation-settings: normal; font-variant-position: normal; font-variant-emoji: normal; font-stretch: normal; line-height: normal; min-height: 14px; text-align: start;&quot; class=&quot;p2&quot;&gt;&lt;font style=&quot;font-size: 20px;&quot;&gt;&lt;br&gt;&lt;/font&gt;&lt;/p&gt;&lt;p style=&quot;margin: 0px; font-variant-numeric: normal; font-variant-east-asian: normal; font-variant-alternates: normal; font-size-adjust: none; font-kerning: auto; font-optical-sizing: auto; font-feature-settings: normal; font-variation-settings: normal; font-variant-position: normal; font-variant-emoji: normal; font-stretch: normal; line-height: normal; text-align: start;&quot; class=&quot;p1&quot;&gt;&lt;font style=&quot;font-size: 20px;&quot;&gt;echo &quot; Completed assigning $ROLE to all users.&lt;/font&gt;&lt;span style=&quot;font-size: 12px;&quot;&gt;&quot;&lt;/span&gt;&lt;/p&gt;" style="rounded=1;whiteSpace=wrap;html=1;fontSize=19;" vertex="1" parent="1">
          <mxGeometry x="-40" y="930" width="870" height="740" as="geometry" />
        </mxCell>
        <UserObject label="PROJECT_ID=&quot;abhi-461006&quot;&lt;br&gt;FIRESTORE_DB_ID=&quot;data-eng-firestore-db5&quot;&amp;nbsp; # Custom identifier for internal reference&lt;br&gt;LOCATION=&quot;asia-south1&quot;&lt;br&gt;&lt;br&gt;&lt;br&gt;# Set the GCP project&lt;br&gt;gcloud config set project $PROJECT_ID&lt;br&gt;&lt;br&gt;&lt;br&gt;# Enable Firestore API&lt;br&gt;gcloud services enable firestore.googleapis.com&lt;br&gt;&lt;br&gt;&lt;br&gt;# Create Firestore in Native mode&lt;br&gt;echo &quot;Firestore DB ($FIRESTORE_DB_ID) created in location $LOCATION for project $PROJECT_ID&quot;" link="PROJECT_ID=&quot;abhi-461006&quot;&#xa;FIRESTORE_DB_ID=&quot;data-eng-firestore-db5&quot;  # Custom identifier for internal reference&#xa;LOCATION=&quot;asia-south1&quot;&#xa;&#xa;&#xa;# Set the GCP project&#xa;gcloud config set project $PROJECT_ID&#xa;&#xa;&#xa;# Enable Firestore API&#xa;gcloud services enable firestore.googleapis.com&#xa;&#xa;&#xa;# Create Firestore in Native mode&#xa;echo &quot;✅ Firestore DB ($FIRESTORE_DB_ID) created in location $LOCATION for project $PROJECT_ID&quot;" id="xKrLLWmfbD4q2ah6btJ0-21">
          <mxCell style="rounded=1;whiteSpace=wrap;html=1;fontSize=19;" vertex="1" parent="1">
            <mxGeometry x="10" y="1750" width="930" height="660" as="geometry" />
          </mxCell>
        </UserObject>
      </root>
    </mxGraphModel>
  </diagram>
  <diagram id="IrME6-J5HauZd7JU0Lxg" name="Page-4">
    <mxGraphModel dx="1186" dy="760" grid="1" gridSize="10" guides="1" tooltips="1" connect="1" arrows="1" fold="1" page="1" pageScale="1" pageWidth="850" pageHeight="1100" math="0" shadow="0">
      <root>
        <mxCell id="0" />
        <mxCell id="1" parent="0" />
        <mxCell id="ZW59QTdPXG66dreffspd-3" value="" style="edgeStyle=orthogonalEdgeStyle;rounded=0;orthogonalLoop=1;jettySize=auto;html=1;" edge="1" parent="1" source="ZW59QTdPXG66dreffspd-1" target="ZW59QTdPXG66dreffspd-2">
          <mxGeometry relative="1" as="geometry" />
        </mxCell>
        <mxCell id="ZW59QTdPXG66dreffspd-1" value="Select * from &lt;b&gt;Table / insert statement (syntax, table existance, constraint validation rules ). DDL&amp;nbsp;&lt;/b&gt;" style="rounded=1;whiteSpace=wrap;html=1;fontSize=17;" vertex="1" parent="1">
          <mxGeometry x="130" y="60" width="570" height="60" as="geometry" />
        </mxCell>
        <mxCell id="ZW59QTdPXG66dreffspd-5" value="" style="edgeStyle=orthogonalEdgeStyle;rounded=0;orthogonalLoop=1;jettySize=auto;html=1;" edge="1" parent="1" source="ZW59QTdPXG66dreffspd-2" target="ZW59QTdPXG66dreffspd-4">
          <mxGeometry relative="1" as="geometry" />
        </mxCell>
        <mxCell id="ZW59QTdPXG66dreffspd-2" value="1st it will check the table exists or not ." style="whiteSpace=wrap;html=1;fontSize=17;rounded=1;" vertex="1" parent="1">
          <mxGeometry x="317.5" y="210" width="195" height="60" as="geometry" />
        </mxCell>
        <mxCell id="ZW59QTdPXG66dreffspd-7" value="" style="edgeStyle=orthogonalEdgeStyle;rounded=0;orthogonalLoop=1;jettySize=auto;html=1;" edge="1" parent="1" source="ZW59QTdPXG66dreffspd-4" target="ZW59QTdPXG66dreffspd-6">
          <mxGeometry relative="1" as="geometry" />
        </mxCell>
        <mxCell id="ZW59QTdPXG66dreffspd-4" value="it will refer the internal location i.e. data file for the specific table ." style="whiteSpace=wrap;html=1;fontSize=17;rounded=1;" vertex="1" parent="1">
          <mxGeometry x="277.5" y="350" width="275" height="60" as="geometry" />
        </mxCell>
        <mxCell id="ZW59QTdPXG66dreffspd-9" value="" style="edgeStyle=orthogonalEdgeStyle;rounded=0;orthogonalLoop=1;jettySize=auto;html=1;" edge="1" parent="1" source="ZW59QTdPXG66dreffspd-6" target="ZW59QTdPXG66dreffspd-8">
          <mxGeometry relative="1" as="geometry" />
        </mxCell>
        <mxCell id="ZW59QTdPXG66dreffspd-6" value="it will load it into buffer memory&amp;nbsp;" style="whiteSpace=wrap;html=1;fontSize=17;rounded=1;" vertex="1" parent="1">
          <mxGeometry x="355" y="490" width="120" height="60" as="geometry" />
        </mxCell>
        <mxCell id="ZW59QTdPXG66dreffspd-11" value="" style="edgeStyle=orthogonalEdgeStyle;rounded=0;orthogonalLoop=1;jettySize=auto;html=1;" edge="1" parent="1" source="ZW59QTdPXG66dreffspd-8" target="ZW59QTdPXG66dreffspd-10">
          <mxGeometry relative="1" as="geometry" />
        </mxCell>
        <mxCell id="ZW59QTdPXG66dreffspd-8" value="as a result&amp;nbsp;" style="whiteSpace=wrap;html=1;fontSize=17;rounded=1;fontStyle=1" vertex="1" parent="1">
          <mxGeometry x="355" y="630" width="120" height="60" as="geometry" />
        </mxCell>
        <mxCell id="ZW59QTdPXG66dreffspd-10" value="DB UI, Application" style="whiteSpace=wrap;html=1;fontSize=17;rounded=1;fontStyle=1" vertex="1" parent="1">
          <mxGeometry x="355" y="770" width="120" height="60" as="geometry" />
        </mxCell>
      </root>
    </mxGraphModel>
  </diagram>
  <diagram id="4lrKT_M2h73BeuvCTpRY" name="Page-5">
    <mxGraphModel dx="1186" dy="760" grid="1" gridSize="10" guides="1" tooltips="1" connect="1" arrows="1" fold="1" page="1" pageScale="1" pageWidth="850" pageHeight="1100" math="0" shadow="0">
      <root>
        <mxCell id="0" />
        <mxCell id="1" parent="0" />
        <mxCell id="9Vj6zt_VXUzC_RhR7jZy-3" value="" style="edgeStyle=orthogonalEdgeStyle;rounded=0;orthogonalLoop=1;jettySize=auto;html=1;" edge="1" parent="1" source="9Vj6zt_VXUzC_RhR7jZy-1" target="9Vj6zt_VXUzC_RhR7jZy-2">
          <mxGeometry relative="1" as="geometry" />
        </mxCell>
        <mxCell id="9Vj6zt_VXUzC_RhR7jZy-1" value="Normalization is the process of organizing the data to reduce the redundancy and to improve the data integrity." style="rounded=1;whiteSpace=wrap;html=1;fontSize=16;" vertex="1" parent="1">
          <mxGeometry x="120" y="90" width="430" height="60" as="geometry" />
        </mxCell>
        <mxCell id="9Vj6zt_VXUzC_RhR7jZy-5" value="" style="edgeStyle=orthogonalEdgeStyle;rounded=0;orthogonalLoop=1;jettySize=auto;html=1;" edge="1" parent="1" source="9Vj6zt_VXUzC_RhR7jZy-2" target="9Vj6zt_VXUzC_RhR7jZy-4">
          <mxGeometry relative="1" as="geometry" />
        </mxCell>
        <mxCell id="9Vj6zt_VXUzC_RhR7jZy-2" value="big table we will divide them into multiple small tables and we will be defining the relation between the tables." style="whiteSpace=wrap;html=1;fontSize=16;rounded=1;fillColor=#f8cecc;strokeColor=#b85450;" vertex="1" parent="1">
          <mxGeometry x="172.5" y="220" width="325" height="170" as="geometry" />
        </mxCell>
        <mxCell id="9Vj6zt_VXUzC_RhR7jZy-4" value="to reduce the duplicate data and ensures data dependencies properly." style="whiteSpace=wrap;html=1;fontSize=16;rounded=1;fillColor=#f8cecc;strokeColor=#b85450;" vertex="1" parent="1">
          <mxGeometry x="182.5" y="525" width="305" height="85" as="geometry" />
        </mxCell>
        <mxCell id="9Vj6zt_VXUzC_RhR7jZy-6" value="&lt;br&gt;&lt;br&gt;&lt;br&gt;&lt;br&gt;&lt;br&gt;&lt;br&gt;&lt;br&gt;&lt;br&gt;&lt;br&gt;&lt;br&gt;&lt;br&gt;&lt;br&gt;&lt;br&gt;&lt;br&gt;&lt;br&gt;&lt;br&gt;&lt;br&gt;&lt;br&gt;&lt;br&gt;&lt;br&gt;&lt;br&gt;&lt;br&gt;&lt;br&gt;&lt;br&gt;&lt;br&gt;&lt;br&gt;&lt;br&gt;&lt;br&gt;&lt;br&gt;&lt;br&gt;&lt;br&gt;&lt;br&gt;&lt;br&gt;&lt;br&gt;&lt;br&gt;&lt;br&gt;&lt;br&gt;&lt;br&gt;&lt;br&gt;&lt;table&gt;&lt;thead&gt;&lt;tr&gt;&lt;th&gt;Normal Form&lt;/th&gt;&lt;th&gt;Description&lt;/th&gt;&lt;th&gt;Condition&lt;/th&gt;&lt;/tr&gt;&lt;/thead&gt;&lt;tbody&gt;&lt;tr&gt;&lt;td&gt;&lt;strong&gt;1NF&lt;/strong&gt; (First Normal Form)&lt;/td&gt;&lt;td&gt;Eliminate repeating groups; ensure atomicity&lt;/td&gt;&lt;td&gt;Each cell contains a single value&lt;/td&gt;&lt;/tr&gt;&lt;tr&gt;&lt;td&gt;&lt;strong&gt;2NF&lt;/strong&gt; (Second Normal Form)&lt;/td&gt;&lt;td&gt;Eliminate partial dependency&lt;/td&gt;&lt;td&gt;Meet 1NF + all non-key attributes depend on the entire primary key&lt;/td&gt;&lt;/tr&gt;&lt;tr&gt;&lt;td&gt;&lt;strong&gt;3NF&lt;/strong&gt; (Third Normal Form)&lt;/td&gt;&lt;td&gt;Eliminate transitive dependency&lt;/td&gt;&lt;td&gt;Meet 2NF + no transitive dependency&lt;/td&gt;&lt;/tr&gt;&lt;tr&gt;&lt;td&gt;&lt;strong&gt;BCNF&lt;/strong&gt; (Boyce-Codd NF)&lt;/td&gt;&lt;td&gt;Handle edge cases of 3NF&lt;/td&gt;&lt;td&gt;Every determinant is a candidate key&lt;/td&gt;&lt;/tr&gt;&lt;tr&gt;&lt;td&gt;&lt;strong&gt;4NF&lt;/strong&gt;&lt;/td&gt;&lt;td&gt;Eliminate multi-valued dependencies&lt;/td&gt;&lt;td&gt;Meet BCNF + no multivalued dependency&lt;/td&gt;&lt;/tr&gt;&lt;tr&gt;&lt;td&gt;&lt;strong&gt;5NF&lt;/strong&gt;&lt;/td&gt;&lt;td&gt;Eliminate join dependency&lt;/td&gt;&lt;td&gt;Every join dependency is implied by candidate keys&lt;/td&gt;&lt;/tr&gt;&lt;/tbody&gt;&lt;/table&gt;" style="rounded=1;whiteSpace=wrap;html=1;fontSize=18;" vertex="1" parent="1">
          <mxGeometry x="90" y="720" width="720" height="1430" as="geometry" />
        </mxCell>
        <mxCell id="9Vj6zt_VXUzC_RhR7jZy-9" value="" style="edgeStyle=orthogonalEdgeStyle;rounded=0;orthogonalLoop=1;jettySize=auto;html=1;" edge="1" parent="1" source="9Vj6zt_VXUzC_RhR7jZy-7" target="9Vj6zt_VXUzC_RhR7jZy-8">
          <mxGeometry relative="1" as="geometry" />
        </mxCell>
        <mxCell id="9Vj6zt_VXUzC_RhR7jZy-7" value="Flat flie :&amp;nbsp; entire application reqd data would be stored in the same file , unorganized data,&amp;nbsp;" style="rounded=1;whiteSpace=wrap;html=1;fontSize=19;fontStyle=1" vertex="1" parent="1">
          <mxGeometry x="305" y="2210" width="415" height="60" as="geometry" />
        </mxCell>
        <mxCell id="9Vj6zt_VXUzC_RhR7jZy-11" value="" style="edgeStyle=orthogonalEdgeStyle;rounded=0;orthogonalLoop=1;jettySize=auto;html=1;" edge="1" parent="1" source="9Vj6zt_VXUzC_RhR7jZy-8" target="9Vj6zt_VXUzC_RhR7jZy-10">
          <mxGeometry relative="1" as="geometry" />
        </mxCell>
        <mxCell id="9Vj6zt_VXUzC_RhR7jZy-8" value="raw files." style="whiteSpace=wrap;html=1;fontSize=19;rounded=1;fontStyle=1;" vertex="1" parent="1">
          <mxGeometry x="452.5" y="2350" width="120" height="60" as="geometry" />
        </mxCell>
        <mxCell id="9Vj6zt_VXUzC_RhR7jZy-13" value="" style="edgeStyle=orthogonalEdgeStyle;rounded=0;orthogonalLoop=1;jettySize=auto;html=1;" edge="1" parent="1" source="9Vj6zt_VXUzC_RhR7jZy-10" target="9Vj6zt_VXUzC_RhR7jZy-12">
          <mxGeometry relative="1" as="geometry" />
        </mxCell>
        <mxCell id="9Vj6zt_VXUzC_RhR7jZy-10" value="1 NF : ensure atomicity , eliminating repeating groups / data" style="whiteSpace=wrap;html=1;fontSize=19;rounded=1;fontStyle=1;" vertex="1" parent="1">
          <mxGeometry x="373.75" y="2480" width="277.5" height="90" as="geometry" />
        </mxCell>
        <mxCell id="9Vj6zt_VXUzC_RhR7jZy-15" value="" style="edgeStyle=orthogonalEdgeStyle;rounded=0;orthogonalLoop=1;jettySize=auto;html=1;" edge="1" parent="1" source="9Vj6zt_VXUzC_RhR7jZy-12" target="9Vj6zt_VXUzC_RhR7jZy-14">
          <mxGeometry relative="1" as="geometry" />
        </mxCell>
        <mxCell id="9Vj6zt_VXUzC_RhR7jZy-12" value="2NF : eliminate the partial dependencies&amp;nbsp; ===&amp;gt; all non key attributes depends on the entire primary key&amp;nbsp;" style="whiteSpace=wrap;html=1;fontSize=19;rounded=1;fontStyle=1;" vertex="1" parent="1">
          <mxGeometry x="386.88" y="2640" width="251.25" height="170" as="geometry" />
        </mxCell>
        <mxCell id="9Vj6zt_VXUzC_RhR7jZy-14" value="3NF : eliminate the transitive dependencies&amp;nbsp;" style="whiteSpace=wrap;html=1;fontSize=19;rounded=1;fontStyle=1;" vertex="1" parent="1">
          <mxGeometry x="452.505" y="2945" width="120" height="60" as="geometry" />
        </mxCell>
        <mxCell id="9Vj6zt_VXUzC_RhR7jZy-16" value="a ==&amp;gt; b , B==&amp;gt; C , A ===&amp;gt; C" style="text;html=1;align=center;verticalAlign=middle;whiteSpace=wrap;rounded=0;fillColor=#dae8fc;strokeColor=#6c8ebf;" vertex="1" parent="1">
          <mxGeometry x="170" y="3060" width="180" height="70" as="geometry" />
        </mxCell>
      </root>
    </mxGraphModel>
  </diagram>
  <diagram id="jYWSqVf8_efh15l3x806" name="Page-6">
    <mxGraphModel dx="1186" dy="760" grid="1" gridSize="10" guides="1" tooltips="1" connect="1" arrows="1" fold="1" page="1" pageScale="1" pageWidth="850" pageHeight="1100" math="0" shadow="0">
      <root>
        <mxCell id="0" />
        <mxCell id="1" parent="0" />
        <mxCell id="2R9NSKebOk6mcVcA3b7p-1" value="&lt;div&gt;curl -X GET \&lt;/div&gt;&lt;div&gt;&amp;nbsp; -H &quot;Authorization: Bearer $(gcloud auth print-access-token)&quot; \&lt;/div&gt;&lt;div&gt;&amp;nbsp; &quot;https://firestore.googleapis.com/v1/projects/PROJECT_ID/databases&quot;&lt;/div&gt;&lt;div&gt;&lt;br&gt;&lt;/div&gt;" style="rounded=1;whiteSpace=wrap;html=1;fontSize=17;" vertex="1" parent="1">
          <mxGeometry x="220" y="140" width="650" height="200" as="geometry" />
        </mxCell>
        <mxCell id="2R9NSKebOk6mcVcA3b7p-2" value="rest api : web service : do a cross platform communication." style="rounded=1;whiteSpace=wrap;html=1;" vertex="1" parent="1">
          <mxGeometry x="160" y="370" width="560" height="160" as="geometry" />
        </mxCell>
        <mxCell id="2R9NSKebOk6mcVcA3b7p-3" value="Java" style="rounded=1;whiteSpace=wrap;html=1;" vertex="1" parent="1">
          <mxGeometry x="100" y="600" width="210" height="100" as="geometry" />
        </mxCell>
        <mxCell id="2R9NSKebOk6mcVcA3b7p-4" value="dotnet&amp;nbsp;" style="rounded=1;whiteSpace=wrap;html=1;" vertex="1" parent="1">
          <mxGeometry x="460" y="600" width="210" height="100" as="geometry" />
        </mxCell>
        <mxCell id="2R9NSKebOk6mcVcA3b7p-5" value="python (fastapi)" style="rounded=1;whiteSpace=wrap;html=1;" vertex="1" parent="1">
          <mxGeometry x="290" y="790" width="210" height="100" as="geometry" />
        </mxCell>
        <mxCell id="2R9NSKebOk6mcVcA3b7p-6" value="web sevice : rest api&amp;nbsp;" style="text;html=1;align=center;verticalAlign=middle;whiteSpace=wrap;rounded=0;fillColor=#fff2cc;strokeColor=#d6b656;" vertex="1" parent="1">
          <mxGeometry x="360" y="710" width="90" height="30" as="geometry" />
        </mxCell>
        <mxCell id="2R9NSKebOk6mcVcA3b7p-7" value="google cloud services&amp;nbsp;" style="rounded=1;whiteSpace=wrap;html=1;" vertex="1" parent="1">
          <mxGeometry x="270" y="1000" width="120" height="60" as="geometry" />
        </mxCell>
        <mxCell id="2R9NSKebOk6mcVcA3b7p-12" value="" style="edgeStyle=orthogonalEdgeStyle;rounded=0;orthogonalLoop=1;jettySize=auto;html=1;" edge="1" parent="1" source="2R9NSKebOk6mcVcA3b7p-10" target="2R9NSKebOk6mcVcA3b7p-11">
          <mxGeometry relative="1" as="geometry" />
        </mxCell>
        <mxCell id="2R9NSKebOk6mcVcA3b7p-10" value="browser" style="rounded=1;whiteSpace=wrap;html=1;" vertex="1" parent="1">
          <mxGeometry x="100" y="1110" width="120" height="60" as="geometry" />
        </mxCell>
        <mxCell id="2R9NSKebOk6mcVcA3b7p-14" value="" style="edgeStyle=orthogonalEdgeStyle;rounded=0;orthogonalLoop=1;jettySize=auto;html=1;" edge="1" parent="1" source="2R9NSKebOk6mcVcA3b7p-11" target="2R9NSKebOk6mcVcA3b7p-13">
          <mxGeometry relative="1" as="geometry" />
        </mxCell>
        <mxCell id="2R9NSKebOk6mcVcA3b7p-11" value="access GCP console" style="whiteSpace=wrap;html=1;rounded=1;" vertex="1" parent="1">
          <mxGeometry x="300" y="1110" width="120" height="60" as="geometry" />
        </mxCell>
        <mxCell id="2R9NSKebOk6mcVcA3b7p-13" value="" style="whiteSpace=wrap;html=1;rounded=1;" vertex="1" parent="1">
          <mxGeometry x="500" y="1110" width="120" height="60" as="geometry" />
        </mxCell>
      </root>
    </mxGraphModel>
  </diagram>
  <diagram id="ZuYlASZkyM67lvAlTsQ5" name="Page-7">
    <mxGraphModel dx="1186" dy="1860" grid="1" gridSize="10" guides="1" tooltips="1" connect="1" arrows="1" fold="1" page="1" pageScale="1" pageWidth="850" pageHeight="1100" math="0" shadow="0">
      <root>
        <mxCell id="0" />
        <mxCell id="1" parent="0" />
        <mxCell id="APWsOCSHR4zUkfzB6I6Q-3" value="" style="edgeStyle=orthogonalEdgeStyle;rounded=0;orthogonalLoop=1;jettySize=auto;html=1;" edge="1" parent="1" source="APWsOCSHR4zUkfzB6I6Q-1" target="APWsOCSHR4zUkfzB6I6Q-2">
          <mxGeometry relative="1" as="geometry" />
        </mxCell>
        <mxCell id="APWsOCSHR4zUkfzB6I6Q-1" value="PaaS : GAE(google App Engine) : it s provided by GCP that let&#39;s u build and deploy the application without having to manage the underlying infra(server(VM) , networking , OS)" style="rounded=1;whiteSpace=wrap;html=1;fontSize=16;" vertex="1" parent="1">
          <mxGeometry x="160" y="70" width="480" height="60" as="geometry" />
        </mxCell>
        <mxCell id="APWsOCSHR4zUkfzB6I6Q-2" value="&lt;table&gt;&lt;br/&gt;&lt;thead&gt;&lt;br/&gt;&lt;tr&gt;&lt;br/&gt;&lt;th&gt;Feature&lt;/th&gt;&lt;br/&gt;&lt;th&gt;Description&lt;/th&gt;&lt;br/&gt;&lt;/tr&gt;&lt;br/&gt;&lt;/thead&gt;&lt;br/&gt;&lt;tbody&gt;&lt;br/&gt;&lt;tr&gt;&lt;br/&gt;&lt;td&gt;&lt;strong&gt;Fully Managed&lt;/strong&gt;&lt;/td&gt;&lt;br/&gt;&lt;td&gt;Google handles server provisioning, scaling, security, and patching.&lt;/td&gt;&lt;br/&gt;&lt;/tr&gt;&lt;br/&gt;&lt;tr&gt;&lt;br/&gt;&lt;td&gt;&lt;strong&gt;Auto-scaling&lt;/strong&gt;&lt;/td&gt;&lt;br/&gt;&lt;td&gt;Automatically scales your app based on traffic — from zero to millions of users.&lt;/td&gt;&lt;br/&gt;&lt;/tr&gt;&lt;br/&gt;&lt;tr&gt;&lt;br/&gt;&lt;td&gt;&lt;strong&gt;Supports Multiple Languages&lt;/strong&gt;&lt;/td&gt;&lt;br/&gt;&lt;td&gt;Python, Node.js, Java, Go, PHP, Ruby, .NET, and more.&lt;/td&gt;&lt;br/&gt;&lt;/tr&gt;&lt;br/&gt;&lt;tr&gt;&lt;br/&gt;&lt;td&gt;&lt;strong&gt;Standard &amp;amp; Flexible Environments&lt;/strong&gt;&lt;/td&gt;&lt;br/&gt;&lt;td&gt;Standard uses pre-configured runtimes; Flexible lets you define your own Docker-based environment.&lt;/td&gt;&lt;br/&gt;&lt;/tr&gt;&lt;br/&gt;&lt;tr&gt;&lt;br/&gt;&lt;td&gt;&lt;strong&gt;Integrated with GCP&lt;/strong&gt;&lt;/td&gt;&lt;br/&gt;&lt;td&gt;Easily connects to Firestore, Cloud SQL, Cloud Storage, Pub/Sub, etc.&lt;/td&gt;&lt;br/&gt;&lt;/tr&gt;&lt;br/&gt;&lt;tr&gt;&lt;br/&gt;&lt;td&gt;&lt;strong&gt;Built-in Security &amp;amp; Load Balancing&lt;/strong&gt;&lt;/td&gt;&lt;br/&gt;&lt;td&gt;HTTPS support, Identity-Aware Proxy, and automatic HTTPS provisioning.&lt;/td&gt;&lt;br/&gt;&lt;/tr&gt;&lt;br/&gt;&lt;/tbody&gt;&lt;/table&gt;" style="whiteSpace=wrap;html=1;fontSize=16;rounded=1;" vertex="1" parent="1">
          <mxGeometry x="340" y="210" width="440" height="280" as="geometry" />
        </mxCell>
      </root>
    </mxGraphModel>
  </diagram>
</mxfile>
